<?xml version="1.0" standalone="no"?>
<!DOCTYPE svg PUBLIC "-//W3C//DTD SVG 1.0//EN" "http://www.w3.org/TR/2001/REC-SVG-20010904/DTD/svg10.dtd">
<svg xmlns="http://www.w3.org/2000/svg" xmlns:xlink="http://www.w3.org/1999/xlink" id="body_1" width="32" height="32">

<defs>
    <clipPath  id="1">

    <path id=""  clip-rule="evenodd" transform="matrix(1 0 0 1 0 0)"  d="M0 24L0 0L0 0L24 0L24 0L24 24L24 24L0 24z" />    </clipPath>
</defs>

<g transform="matrix(1.3333 0 0 1.3333 0 0)">
	<g clip-path="url(#1)" >
    <path id=""  transform="matrix(1 0 0 -1 0 24)"  d="M18.010406 4.489591C 19.604465 6.083652 20.5 8.24566 20.5 10.5L20.5 10.5L18.5 10.5C 18.5 8.776093 17.815182 7.122792 16.596195 5.9038057L16.596195 5.9038057L18.010406 4.489591zM12 2C 14.25434 2 16.416348 2.895532 18.010406 4.489591L18.010406 4.489591L16.596195 5.9038057C 15.377208 4.68482 13.723907 4 12 4L12 4L12 2zM5.989592 4.489591C 7.583652 2.895532 9.74566 2 12 2L12 2L12 4C 10.276093 4 8.622791 4.68482 7.4038057 5.9038057L7.4038057 5.9038057L5.989592 4.489591zM3.5 10.5C 3.5 8.24566 4.395533 6.083652 5.989592 4.489591L5.989592 4.489591L7.4038057 5.9038057C 6.184819 7.122792 5.5 8.776093 5.5 10.5L5.5 10.5L3.5 10.5zM12 22.5C 11.426538 23.319231 11.426268 23.319042 11.425968 23.318832C 11.42583 23.318737 11.425502 23.318506 11.425226 23.318314C 11.424675 23.317924 11.424007 23.317457 11.423227 23.316908C 11.421669 23.315811 11.419655 23.314392 11.417194 23.312653C 11.412273 23.309172 11.405563 23.304409 11.397123 23.298378C 11.380243 23.286318 11.356435 23.26918 11.32616 23.24708C 11.26562 23.202885 11.179164 23.138803 11.070496 23.05575C 10.853254 22.889715 10.546663 22.647417 10.180477 22.336159C 9.449501 21.714828 8.47373 20.812515 7.4953938 19.68743C 5.5631533 17.465351 3.5 14.235053 3.5 10.5L3.5 10.5L5.5 10.5C 5.5 13.514947 7.1868467 16.284649 9.004604 18.37507C 9.90127 19.406235 10.800499 20.238297 11.475773 20.812279C 11.812712 21.098677 12.092059 21.31927 12.284974 21.466711C 12.381383 21.540396 12.45606 21.5957 12.505383 21.631704C 12.53004 21.649704 12.548346 21.66287 12.559848 21.67109C 12.565598 21.675198 12.569646 21.678068 12.571934 21.679686C 12.573078 21.680496 12.573782 21.680992 12.574039 21.681171C 12.574168 21.681263 12.574184 21.681274 12.574089 21.681208C 12.574041 21.681173 12.573884 21.681063 12.57386 21.681047C 12.573676 21.680918 12.573462 21.680769 12 22.5zM20.5 10.5C 20.5 14.235053 18.436848 17.465351 16.504604 19.68743C 15.52627 20.812515 14.5505 21.714828 13.819524 22.336159C 13.453338 22.647417 13.146747 22.889715 12.929505 23.05575C 12.820836 23.138803 12.734381 23.202885 12.67384 23.24708C 12.643565 23.26918 12.619757 23.286318 12.602878 23.298378C 12.594437 23.304409 12.587728 23.309172 12.582806 23.312653C 12.580345 23.314392 12.578331 23.315811 12.576772 23.316908C 12.575992 23.317457 12.575326 23.317924 12.574774 23.318314C 12.574498 23.318506 12.57417 23.318737 12.574032 23.318832C 12.573733 23.319042 12.573462 23.319231 12 22.5C 11.426538 21.680769 11.426324 21.680918 11.426139 21.681047C 11.426116 21.681063 11.425959 21.681173 11.425911 21.681208C 11.425816 21.681274 11.425832 21.681263 11.425961 21.681171C 11.426218 21.680992 11.426922 21.680496 11.428066 21.679686C 11.430355 21.678068 11.434402 21.675198 11.440153 21.67109C 11.451654 21.66287 11.46996 21.649704 11.494617 21.631704C 11.54394 21.5957 11.618617 21.540396 11.715026 21.466711C 11.907941 21.31927 12.187288 21.098677 12.524226 20.812279C 13.1995 20.238297 14.09873 19.406235 14.995395 18.37507C 16.813152 16.284649 18.5 13.514947 18.5 10.5L18.5 10.5L20.5 10.5zM12 3L12 2L12 2L12 3zM12 22.5L12.573462 23.319231C 12.229142 23.560257 11.770858 23.560257 11.426538 23.319231L11.426538 23.319231L12 22.5zM19.5 10.5L20.5 10.5L20.5 10.5L19.5 10.5z" stroke="none" fill="#FFFFFF" fill-rule="nonzero" />
    <path id=""  transform="matrix(1 0 0 -1 0 24)"  d="M15.889941 6.616375C 16.694862 7.4203033 17.230305 8.454322 17.422325 9.575625L17.422325 9.575625L15.45102 9.913205C 15.3289175 9.200184 14.988437 8.542666 14.476601 8.031461L14.476601 8.031461L15.889941 6.616375zM12.928805 5.087643C 14.050344 5.2782803 15.085022 5.812448 15.889941 6.616375L15.889941 6.616375L14.476601 8.031461C 13.964765 7.520255 13.306827 7.180585 12.593656 7.059362L12.593656 7.059362L12.928805 5.087643zM17.422325 9.575625C 17.515545 10.119985 17.149824 10.636847 16.605463 10.730067C 16.061102 10.823287 15.544241 10.457566 15.45102 9.913205L15.45102 9.913205L17.422325 9.575625zM12.593656 7.059362C 12.04918 6.966813 11.682822 6.450403 11.775372 5.905928C 11.867921 5.361452 12.384331 4.9950943 12.928805 5.087643L12.928805 5.087643L12.593656 7.059362z" stroke="none" fill="#FFFFFF" fill-rule="nonzero" />
	</g>
</g>
</svg>