<?xml version="1.0" standalone="no"?>
<!DOCTYPE svg PUBLIC "-//W3C//DTD SVG 1.0//EN" "http://www.w3.org/TR/2001/REC-SVG-20010904/DTD/svg10.dtd">
<svg xmlns="http://www.w3.org/2000/svg" xmlns:xlink="http://www.w3.org/1999/xlink" id="body_1" width="32" height="32">

<defs>
    <clipPath  id="1">

    <path id=""  clip-rule="evenodd" transform="matrix(1 0 0 1 0 0)"  d="M0 24L0 0L0 0L24 0L24 0L24 24L24 24L0 24z" />    </clipPath>
</defs>

<g transform="matrix(1.3333 0 0 1.3333 0 0)">
	<g clip-path="url(#1)" >
    <path id=""  transform="matrix(1 0 0 -1 0 24)"  d="M14.25 10L3.75 10L3.75 10L3.75 8L3.75 8L14.25 8L14.25 8L14.25 10zM15.934381 9.529336C 15.426502 9.837149 14.843996 9.999929 14.250119 10L14.250119 10L14.249881 8C 14.478325 7.999973 14.702395 7.937357 14.897759 7.818952L14.897759 7.818952L15.934381 9.529336zM17.13095 8.253999C 16.856096 8.780446 16.442259 9.221523 15.934381 9.529336L15.934381 9.529336L14.897759 7.818952C 15.093123 7.700546 15.252313 7.530878 15.358039 7.328373L15.358039 7.328373L17.13095 8.253999zM17.493431 6.543189C 17.53117 7.1358647 17.405804 7.727553 17.13095 8.253999L17.13095 8.253999L15.358039 7.328373C 15.463766 7.125868 15.511989 6.898266 15.497472 6.670283L15.497472 6.670283L17.493431 6.543189zM16.916885 4.89217C 17.25629 5.379504 17.45569 5.950513 17.493431 6.543189L17.493431 6.543189L15.497472 6.670283C 15.482955 6.442299 15.406253 6.222651 15.275695 6.035192L15.275695 6.035192L16.916885 4.89217zM15.568218 3.778903C 16.111038 4.0198107 16.577477 4.404839 16.916885 4.89217L16.916885 4.89217L15.275695 6.035192C 15.145137 5.8477316 14.965713 5.699625 14.756908 5.606955L14.756908 5.606955L15.568218 3.778903zM13.837861 3.525667C 14.42695 3.4504108 15.025399 3.537994 15.568218 3.778903L15.568218 3.778903L14.756908 5.606955C 14.548104 5.514286 14.317902 5.4805956 14.091299 5.509544L14.091299 5.509544L13.837861 3.525667zM12.226737 4.205774C 12.691558 3.836142 13.24877 3.600923 13.837861 3.525667L13.837861 3.525667L14.091299 5.509544C 13.864698 5.538492 13.650358 5.628972 13.471555 5.771159L13.471555 5.771159L12.226737 4.205774zM11.201256 5.622337C 11.407249 5.065332 11.761913 4.575409 12.226737 4.205774L12.226737 4.205774L13.471555 5.771159C 13.292754 5.913344 13.156326 6.1018 13.077087 6.316062L13.077087 6.316062L11.201256 5.622337zM3.75 10C 3.197715 10 2.75 9.552284 2.75 9C 2.75 8.447715 3.197715 8 3.75 8L3.75 8L3.75 10zM14.25 9L14.250119 10L14.250119 10L14.25 10L14.25 10L14.25 9zM13.077087 6.316062C 12.885521 6.834059 12.310306 7.098682 11.792309 6.907116C 11.274312 6.715549 11.009689 6.140334 11.201256 5.622337L11.201256 5.622337L13.077087 6.316062z" stroke="none" fill="#FFFFFF" fill-rule="nonzero" />
    <path id=""  transform="matrix(1 0 0 -1 0 24)"  d="M11.25 16.000015L2.25 16.000015L2.25 16.000015L2.25 14.000014L2.25 14.000014L11.25 14.000014L11.25 14.000014L11.25 16.000015zM11.897759 16.181063C 11.702395 16.062656 11.478325 16.000042 11.249881 16.000015L11.249881 16.000015L11.250119 14.000014C 11.843996 14.000084 12.426502 14.162866 12.934381 14.470678L12.934381 14.470678L11.897759 16.181063zM12.358039 16.671642C 12.252313 16.469135 12.093123 16.299469 11.897759 16.181063L11.897759 16.181063L12.934381 14.470678C 13.44226 14.77849 13.856097 15.219569 14.130951 15.746016L14.130951 15.746016L12.358039 16.671642zM12.497472 17.329733C 12.511989 17.10175 12.463766 16.874146 12.358039 16.671642L12.358039 16.671642L14.130951 15.746016C 14.405805 16.27246 14.531169 16.864151 14.49343 17.456825L14.49343 17.456825L12.497472 17.329733zM12.275695 17.964823C 12.406253 17.777363 12.482955 17.557716 12.497472 17.329733L12.497472 17.329733L14.49343 17.456825C 14.45569 18.049501 14.256291 18.62051 13.916884 19.107843L13.916884 19.107843L12.275695 17.964823zM11.756908 18.393059C 11.965714 18.300388 12.145137 18.152283 12.275695 17.964823L12.275695 17.964823L13.916884 19.107843C 13.577477 19.595175 13.111036 19.980202 12.568218 20.221111L12.568218 20.221111L11.756908 18.393059zM11.091299 18.490469C 11.317902 18.519419 11.548105 18.48573 11.756908 18.393059L11.756908 18.393059L12.568218 20.221111C 12.025399 20.46202 11.42695 20.549603 10.837861 20.474346L10.837861 20.474346L11.091299 18.490469zM10.471555 18.228855C 10.650356 18.37104 10.864697 18.461521 11.091299 18.490469L11.091299 18.490469L10.837861 20.474346C 10.248772 20.399092 9.69156 20.163874 9.226737 19.79424L9.226737 19.79424L10.471555 18.228855zM10.077087 17.683952C 10.156326 17.898214 10.292753 18.08667 10.471555 18.228855L10.471555 18.228855L9.226737 19.79424C 8.761913 19.424606 8.407248 18.934683 8.201255 18.377678L8.201255 18.377678L10.077087 17.683952zM2.25 16.000015C 1.697715 16.000015 1.25 15.5522995 1.25 15.000014C 1.25 14.447729 1.697715 14.000014 2.25 14.000014L2.25 14.000014L2.25 16.000015zM11.25 15.000014L11.25 14.000014L11.25 14.000014L11.250119 14.000014L11.250119 14.000014L11.25 15.000014zM8.201255 18.377678C 8.009687 17.85968 8.274312 17.284466 8.792308 17.0929C 9.310305 16.901333 9.88552 17.165955 10.077087 17.683952L10.077087 17.683952L8.201255 18.377678z" stroke="none" fill="#FFFFFF" fill-rule="nonzero" />
    <path id=""  transform="matrix(1 0 0 -1 0 24)"  d="M19.5 13.000014L3 13.000014L3 13.000014L3 11.000014L3 11.000014L19.5 11.000014L19.5 11.000014L19.5 13.000014zM20.147758 13.181063C 19.952394 13.062657 19.728325 13.000041 19.499882 13.000014L19.499882 13.000014L19.500118 11.000014C 20.093996 11.000084 20.676502 11.162866 21.184381 11.470678L21.184381 11.470678L20.147758 13.181063zM20.60804 13.671641C 20.502312 13.469136 20.343122 13.299468 20.147758 13.181063L20.147758 13.181063L21.184381 11.470678C 21.692259 11.77849 22.106096 12.219569 22.38095 12.746016L22.38095 12.746016L20.60804 13.671641zM20.747473 14.329733C 20.76199 14.101749 20.713766 13.874146 20.60804 13.671641L20.60804 13.671641L22.38095 12.746016C 22.655806 13.272461 22.781168 13.86415 22.74343 14.456826L22.74343 14.456826L20.747473 14.329733zM20.525696 14.964823C 20.656252 14.777363 20.732956 14.557715 20.747473 14.329733L20.747473 14.329733L22.74343 14.456826C 22.70569 15.049501 22.506292 15.62051 22.166883 16.107843L22.166883 16.107843L20.525696 14.964823zM20.006908 15.393059C 20.215714 15.300389 20.395136 15.152283 20.525696 14.964823L20.525696 14.964823L22.166883 16.107843C 21.827477 16.595175 21.361036 16.980202 20.818218 17.221111L20.818218 17.221111L20.006908 15.393059zM19.3413 15.490469C 19.567904 15.519419 19.798105 15.485728 20.006908 15.393059L20.006908 15.393059L20.818218 17.221111C 20.275398 17.46202 19.676949 17.549603 19.08786 17.474346L19.08786 17.474346L19.3413 15.490469zM18.721554 15.228855C 18.900356 15.371041 19.114697 15.461521 19.3413 15.490469L19.3413 15.490469L19.08786 17.474346C 18.498772 17.399092 17.941559 17.163874 17.476738 16.79424L17.476738 16.79424L18.721554 15.228855zM18.327087 14.683952C 18.406326 14.898215 18.542755 15.086672 18.721554 15.228855L18.721554 15.228855L17.476738 16.79424C 17.011913 16.424606 16.657248 15.934683 16.451256 15.377678L16.451256 15.377678L18.327087 14.683952zM3 13.000014C 2.447715 13.000014 2 12.5522995 2 12.000014C 2 11.447729 2.447715 11.000014 3 11.000014L3 11.000014L3 13.000014zM19.5 12.000014L19.5 11.000014L19.5 11.000014L19.500118 11.000014L19.500118 11.000014L19.5 12.000014zM16.451256 15.377678C 16.25969 14.85968 16.524311 14.284466 17.042309 14.092898C 17.560307 13.901331 18.13552 14.165955 18.327087 14.683952L18.327087 14.683952L16.451256 15.377678z" stroke="none" fill="#FFFFFF" fill-rule="nonzero" />
	</g>
</g>
</svg>